<svg width="626" height="687" viewBox="0 0 626 687" fill="none" xmlns="http://www.w3.org/2000/svg">
<mask id="path-1-inside-1_48_43" fill="white">
<path d="M410.731 57.1393C417.881 81.5527 412.419 110.492 403.314 133.724C402.773 135.129 402.233 136.535 401.675 137.982C393.018 159.007 380.855 178.305 369.395 197.884C358.6 216.361 348.239 234.926 338.991 254.233C338.2 255.866 337.408 257.499 336.593 259.182C331.096 270.927 326.898 281.323 331.132 294.249C334.146 299.158 338.025 300.958 343.064 303.645C350.131 304.925 353.185 305.179 359.773 302.186C362.432 299.719 364.997 297.149 367.501 294.524C368.822 293.153 370.143 291.783 371.504 290.371C373.16 288.555 374.806 286.732 376.447 284.904C377.474 283.781 378.501 282.658 379.558 281.501C393.272 265.893 404.34 248.394 415.819 231.125C439.679 195.253 439.679 195.253 451.892 179.351C453.11 177.764 453.11 177.764 454.352 176.144C470.884 155.001 495.034 135.772 521.892 130.439C523.828 130.016 523.828 130.016 525.803 129.585C549.692 125.075 568.768 134.549 588.364 147.33C597.945 154.011 604.448 161.956 610.7 171.845C611.59 173.234 612.481 174.623 613.398 176.054C624.617 195.623 628.29 219.109 623.769 241.096C617.816 261.635 604.034 282.233 585.449 292.966C569.263 301.858 553.585 306.066 535.443 308.731C533.532 309.066 533.532 309.066 531.583 309.407C521.219 311.208 510.99 312.292 500.494 312.92C497.236 313.131 493.977 313.342 490.719 313.553C489.065 313.657 487.412 313.761 485.708 313.868C473.013 314.673 460.322 315.558 447.634 316.466C445.095 316.647 442.557 316.825 440.017 316.998C426.999 317.901 414.143 319.456 401.252 321.44C399.884 321.646 398.517 321.852 397.108 322.065C382.569 324.043 382.569 324.043 370.193 331.072C365.718 338.788 364.193 344.069 365.575 353.198C368.991 360.716 373.556 363.201 380.895 366.676C386.376 368.33 391.869 369.258 397.526 370.107C399.87 370.486 399.87 370.486 402.261 370.874C406.991 371.623 411.726 372.321 416.467 372.998C417.795 373.191 419.122 373.385 420.491 373.584C438.351 376.11 456.234 377.262 474.24 378.196C489.413 378.991 504.49 380.309 519.603 381.837C520.774 381.913 521.944 381.989 523.15 382.068C549.833 383.949 577.515 397.776 595.724 417.529C609.499 434.516 616.533 456.511 615.156 478.298C613.032 494.913 607.425 508.219 598.719 522.393C597.983 523.594 597.247 524.794 596.489 526.032C584.531 544.773 565.193 559.71 543.894 566.307C516.655 571.863 495.072 563.169 472.455 548.881C461.993 541.949 454.126 534.514 446.847 524.229C445.825 522.829 445.825 522.829 444.783 521.402C431.638 503.337 420.76 484.051 409.938 464.538C387.055 419.102 356.794 389.376 350.361 387.19C343.928 385.003 339.014 386.625 334.19 390.959C332.114 392.825 330.402 393.702 328.63 396.55C327.571 399.842 327.812 399.862 327.812 399.862C317.516 425.15 345.795 472.509 355.605 496.239C359.038 504.545 362.425 512.867 365.769 521.208C366.472 522.938 366.472 522.938 367.188 524.702C374.394 542.485 380.756 560.099 385.275 578.768C385.661 580.294 386.046 581.819 386.443 583.391C391.721 608.343 385.132 631.187 371.669 652.044C358.513 670.983 338.91 681.617 316.372 685.974C287.314 689.678 262.179 682.841 238.614 665.32C220.967 650.395 213.7 632.771 210.579 610.357C209.077 565.054 233.518 524.69 255.649 486.901C263.728 473.098 271.613 459.219 279.062 445.062C279.867 443.557 280.672 442.052 281.501 440.502C291.855 421.523 291.855 421.523 293.398 400.772C290.714 393.953 287.947 391.004 281.561 387.191C275.614 384.658 269.829 384.408 263.777 386.67C256.086 393.281 250.006 400.81 243.913 408.882C243.011 410.069 242.109 411.257 241.179 412.48C230.639 426.407 220.521 440.532 210.963 455.151C152.429 544.619 152.429 544.619 103.139 557.115C78.2856 561.662 59.415 555.541 39.0156 541.468C17.3141 525.647 5.86353 501.639 0.847472 475.968C-0.0607613 469.769 -0.217335 464.076 0.27398 457.835C0.398481 456.1 0.522999 454.364 0.651274 452.576C3.18556 432.996 13.6701 413.475 28.9828 400.757C31.5857 398.998 34.2409 397.315 36.9387 395.706C38.4206 394.756 39.9024 393.806 41.4291 392.828C66.2105 378.217 95.218 376.403 123.297 374.358C124.894 374.24 126.491 374.121 128.136 373.999C137.55 373.31 146.966 372.668 156.384 372.053C170.153 371.152 183.894 370.161 197.61 368.642C200.687 368.306 203.767 367.994 206.849 367.707C234.229 366.287 234.229 366.287 256.39 352.696C260.068 346.333 259.27 341.299 257.851 334.293C256.001 327.979 252.364 325.749 246.832 322.415C241.553 319.753 236.038 318.677 230.266 317.685C228.633 317.367 228.633 317.367 226.966 317.044C200.251 312.067 173.013 310.53 145.965 308.417C56.0454 301.359 56.0454 301.359 26.3991 267.555C11.5967 246.964 6.01645 225.612 8.63983 200.449C12.9242 177.493 27.0864 151.672 46.3581 138.003C49.8363 135.784 53.373 133.652 56.978 131.646C58.4118 130.826 59.8456 130.007 61.3228 129.163C80.5018 119.378 101.474 119.094 122.033 124.416C130.522 127.295 137.887 131.935 145.45 136.673C147.559 137.936 147.559 137.936 149.71 139.226C159.289 145.174 166.392 151.669 173.316 160.546C174.055 161.489 174.795 162.432 175.557 163.404C177.669 166.177 179.71 168.988 181.73 171.828C182.474 172.868 183.218 173.908 183.985 174.98C190.43 184.098 196.54 193.425 202.577 202.817C203.457 204.185 204.337 205.554 205.243 206.964C209.473 213.614 213.475 220.295 217.155 227.264C228.243 247.758 241.176 266.964 255.907 284.993C257.067 286.473 258.226 287.953 259.421 289.477C263.942 294.579 268.441 296.976 274.961 298.818C282.073 298.665 288.159 297.832 293.552 292.781C297.439 287.537 299.137 283.859 299 277.236C296.757 263.484 292.285 250.479 287.448 237.453C286.703 235.404 285.959 233.355 285.192 231.243C279.483 215.655 273.167 200.342 266.709 185.052C227.536 92.3127 227.536 92.3127 241.176 55.3768C253.158 30.9027 267.765 13.897 293.894 4.88984C316.486 -1.88579 341.807 -2.41982 363.258 8.41022C385.514 20.4282 401.937 32.6396 410.731 57.1393Z"/>
</mask>
<path d="M410.731 57.1393C417.881 81.5527 412.419 110.492 403.314 133.724C402.773 135.129 402.233 136.535 401.675 137.982C393.018 159.007 380.855 178.305 369.395 197.884C358.6 216.361 348.239 234.926 338.991 254.233C338.2 255.866 337.408 257.499 336.593 259.182C331.096 270.927 326.898 281.323 331.132 294.249C334.146 299.158 338.025 300.958 343.064 303.645C350.131 304.925 353.185 305.179 359.773 302.186C362.432 299.719 364.997 297.149 367.501 294.524C368.822 293.153 370.143 291.783 371.504 290.371C373.16 288.555 374.806 286.732 376.447 284.904C377.474 283.781 378.501 282.658 379.558 281.501C393.272 265.893 404.34 248.394 415.819 231.125C439.679 195.253 439.679 195.253 451.892 179.351C453.11 177.764 453.11 177.764 454.352 176.144C470.884 155.001 495.034 135.772 521.892 130.439C523.828 130.016 523.828 130.016 525.803 129.585C549.692 125.075 568.768 134.549 588.364 147.33C597.945 154.011 604.448 161.956 610.7 171.845C611.59 173.234 612.481 174.623 613.398 176.054C624.617 195.623 628.29 219.109 623.769 241.096C617.816 261.635 604.034 282.233 585.449 292.966C569.263 301.858 553.585 306.066 535.443 308.731C533.532 309.066 533.532 309.066 531.583 309.407C521.219 311.208 510.99 312.292 500.494 312.92C497.236 313.131 493.977 313.342 490.719 313.553C489.065 313.657 487.412 313.761 485.708 313.868C473.013 314.673 460.322 315.558 447.634 316.466C445.095 316.647 442.557 316.825 440.017 316.998C426.999 317.901 414.143 319.456 401.252 321.44C399.884 321.646 398.517 321.852 397.108 322.065C382.569 324.043 382.569 324.043 370.193 331.072C365.718 338.788 364.193 344.069 365.575 353.198C368.991 360.716 373.556 363.201 380.895 366.676C386.376 368.33 391.869 369.258 397.526 370.107C399.87 370.486 399.87 370.486 402.261 370.874C406.991 371.623 411.726 372.321 416.467 372.998C417.795 373.191 419.122 373.385 420.491 373.584C438.351 376.11 456.234 377.262 474.24 378.196C489.413 378.991 504.49 380.309 519.603 381.837C520.774 381.913 521.944 381.989 523.15 382.068C549.833 383.949 577.515 397.776 595.724 417.529C609.499 434.516 616.533 456.511 615.156 478.298C613.032 494.913 607.425 508.219 598.719 522.393C597.983 523.594 597.247 524.794 596.489 526.032C584.531 544.773 565.193 559.71 543.894 566.307C516.655 571.863 495.072 563.169 472.455 548.881C461.993 541.949 454.126 534.514 446.847 524.229C445.825 522.829 445.825 522.829 444.783 521.402C431.638 503.337 420.76 484.051 409.938 464.538C387.055 419.102 356.794 389.376 350.361 387.19C343.928 385.003 339.014 386.625 334.19 390.959C332.114 392.825 330.402 393.702 328.63 396.55C327.571 399.842 327.812 399.862 327.812 399.862C317.516 425.15 345.795 472.509 355.605 496.239C359.038 504.545 362.425 512.867 365.769 521.208C366.472 522.938 366.472 522.938 367.188 524.702C374.394 542.485 380.756 560.099 385.275 578.768C385.661 580.294 386.046 581.819 386.443 583.391C391.721 608.343 385.132 631.187 371.669 652.044C358.513 670.983 338.91 681.617 316.372 685.974C287.314 689.678 262.179 682.841 238.614 665.32C220.967 650.395 213.7 632.771 210.579 610.357C209.077 565.054 233.518 524.69 255.649 486.901C263.728 473.098 271.613 459.219 279.062 445.062C279.867 443.557 280.672 442.052 281.501 440.502C291.855 421.523 291.855 421.523 293.398 400.772C290.714 393.953 287.947 391.004 281.561 387.191C275.614 384.658 269.829 384.408 263.777 386.67C256.086 393.281 250.006 400.81 243.913 408.882C243.011 410.069 242.109 411.257 241.179 412.48C230.639 426.407 220.521 440.532 210.963 455.151C152.429 544.619 152.429 544.619 103.139 557.115C78.2856 561.662 59.415 555.541 39.0156 541.468C17.3141 525.647 5.86353 501.639 0.847472 475.968C-0.0607613 469.769 -0.217335 464.076 0.27398 457.835C0.398481 456.1 0.522999 454.364 0.651274 452.576C3.18556 432.996 13.6701 413.475 28.9828 400.757C31.5857 398.998 34.2409 397.315 36.9387 395.706C38.4206 394.756 39.9024 393.806 41.4291 392.828C66.2105 378.217 95.218 376.403 123.297 374.358C124.894 374.24 126.491 374.121 128.136 373.999C137.55 373.31 146.966 372.668 156.384 372.053C170.153 371.152 183.894 370.161 197.61 368.642C200.687 368.306 203.767 367.994 206.849 367.707C234.229 366.287 234.229 366.287 256.39 352.696C260.068 346.333 259.27 341.299 257.851 334.293C256.001 327.979 252.364 325.749 246.832 322.415C241.553 319.753 236.038 318.677 230.266 317.685C228.633 317.367 228.633 317.367 226.966 317.044C200.251 312.067 173.013 310.53 145.965 308.417C56.0454 301.359 56.0454 301.359 26.3991 267.555C11.5967 246.964 6.01645 225.612 8.63983 200.449C12.9242 177.493 27.0864 151.672 46.3581 138.003C49.8363 135.784 53.373 133.652 56.978 131.646C58.4118 130.826 59.8456 130.007 61.3228 129.163C80.5018 119.378 101.474 119.094 122.033 124.416C130.522 127.295 137.887 131.935 145.45 136.673C147.559 137.936 147.559 137.936 149.71 139.226C159.289 145.174 166.392 151.669 173.316 160.546C174.055 161.489 174.795 162.432 175.557 163.404C177.669 166.177 179.71 168.988 181.73 171.828C182.474 172.868 183.218 173.908 183.985 174.98C190.43 184.098 196.54 193.425 202.577 202.817C203.457 204.185 204.337 205.554 205.243 206.964C209.473 213.614 213.475 220.295 217.155 227.264C228.243 247.758 241.176 266.964 255.907 284.993C257.067 286.473 258.226 287.953 259.421 289.477C263.942 294.579 268.441 296.976 274.961 298.818C282.073 298.665 288.159 297.832 293.552 292.781C297.439 287.537 299.137 283.859 299 277.236C296.757 263.484 292.285 250.479 287.448 237.453C286.703 235.404 285.959 233.355 285.192 231.243C279.483 215.655 273.167 200.342 266.709 185.052C227.536 92.3127 227.536 92.3127 241.176 55.3768C253.158 30.9027 267.765 13.897 293.894 4.88984C316.486 -1.88579 341.807 -2.41982 363.258 8.41022C385.514 20.4282 401.937 32.6396 410.731 57.1393Z" fill="#0D0D0D" stroke="black" stroke-width="2" mask="url(#path-1-inside-1_48_43)"/>
</svg>
